<svg width="" height="" viewBox="0 0 1300 221" fill="none" xmlns="http://www.w3.org/2000/svg">
    <path d="M1269.78 1.6218H1275.16V13.8188H1277.32V1.6218H1282.71V0H1269.78V1.6218Z" fill="white"/>
    <path d="M1296.93 0L1292.37 11.6743L1287.78 0H1284.67V13.8188H1286.73V5.6428C1286.73 5.32112 1286.73 4.8118 1286.69 4.12823C1286.69 3.44466 1286.65 2.93533 1286.65 2.57344V2.17134L1291.27 13.8188H1293.41L1297.99 2.17134C1297.99 2.89512 1297.95 3.57869 1297.95 4.23545C1297.95 4.89222 1297.91 5.36133 1297.91 5.6428V13.8188H1300V0H1296.89H1296.93Z"
          fill="white"/>
    <path d="M584.607 210.775C613.971 223.367 644.467 223.76 674.643 213.333C704.302 203.151 724.838 183.231 735.634 154.457C744.02 132.052 744.537 109.107 738.118 86.161C731.478 62.3793 717.435 43.6638 695.941 30.3097C676.782 18.3082 655.558 13.4141 632.908 13.3403C622.726 13.3403 612.618 14.2503 602.707 16.6604C570.023 24.8992 545.799 43.0736 532.076 73.2741C523.025 93.2685 521.131 114.247 524.993 135.692C531.264 170.713 550.889 196.29 584.607 210.775ZM632.76 57.6574C665.445 57.6574 691.858 84.1444 691.858 116.755C691.858 149.366 665.445 175.853 632.76 175.853C600.076 175.853 573.663 149.44 573.663 116.755C573.663 84.0706 600.15 57.6574 632.76 57.6574Z"
          fill="white"/>
    <path d="M415.651 217.243H470.297V58.0266H521.058V16.4393H364.251V58.2479H415.676V217.243H415.651Z" fill="white"/>
    <path d="M965.113 184.288L965.261 183.698H1013.78L1020.28 217.366H1074.55L1074.11 215.399L1028.44 16.2176H1026.55C1026.1 16.1438 1025.64 16.1438 1025.05 16.1438C1003.16 16.2176 981.271 16.2176 959.383 16.2176H951.07L949.595 22.5872L947.8 30.2603C934.396 88.3497 920.944 146.365 907.54 204.455C906.63 208.685 905.647 212.841 904.688 217.218H958.793L964.818 185.985L965.113 184.313V184.288ZM989.411 56.4522H989.952C995.609 86.0379 1001.27 115.624 1006.92 145.431H972.196C977.926 115.697 983.681 86.0379 989.411 56.4522Z"
          fill="white"/>
    <path d="M1084.98 217.39H1139.58V105.565L1140.39 105.245L1156.84 134.462L1164.3 147.693C1176.96 170.122 1189.6 192.551 1202.19 215.005C1202.22 215.054 1202.27 215.103 1202.29 215.177C1202.29 215.177 1202.29 215.177 1202.29 215.202L1203.5 217.366H1258.24V190.461C1258.24 133.331 1258.24 76.225 1258.29 19.1194V16.2174H1255.04C1238.96 16.2912 1222.88 16.2666 1206.79 16.2666C1205.83 16.2666 1204.87 16.365 1203.72 16.4142V130.207C1203.47 130.281 1203.23 130.355 1202.98 130.429C1202.44 129.494 1201.9 128.535 1201.38 127.6C1181.24 91.3991 1161.07 55.1732 1140.98 18.9227L1140.91 18.7997L1139.51 16.2666H1137.34C1137 16.2174 1136.63 16.2174 1136.21 16.2174C1120.32 16.3158 1104.44 16.3404 1088.57 16.2174H1084.91V53.673C1084.96 107.163 1084.93 160.678 1084.93 214.169V217.415L1084.98 217.39Z"
          fill="white"/>
    <path d="M60.1552 185.96L60.4503 184.288L60.5978 183.698H109.12L115.613 217.366H117.359C117.728 217.44 118.269 217.44 118.786 217.44C131.008 217.366 143.157 217.366 155.38 217.366H169.866L169.423 215.399L123.778 16.2176H121.884C121.442 16.1438 120.974 16.1438 120.384 16.1438C98.4961 16.2176 76.6081 16.2176 54.72 16.2176H46.4075L44.9319 22.5872L43.1366 30.2603C29.7087 88.3497 16.2562 146.365 2.85282 204.455C1.94287 208.685 0.959138 212.841 0 217.218H54.1052L60.1306 185.985L60.1552 185.96ZM84.7484 56.4522H85.2895C90.9459 86.0379 96.6024 115.624 102.259 145.431H67.5331C73.2634 115.697 79.0182 86.0379 84.7484 56.4522Z"
          fill="white"/>
    <path d="M836.614 175.361C825.326 179.518 809.488 176.296 805.356 161.442C804.643 158.908 804.397 156.252 803.905 153.572H751.792L751.964 156.72C752.284 160.236 752.53 163.532 753.095 166.778C757.129 189.921 770.729 206.398 794.584 214.76C814.849 221.867 835.803 222.359 856.707 217.022C883.489 210.185 899.425 191.937 900.729 166.434C901.737 146.882 894.802 130.257 877.587 118.034C871.979 114.05 866.102 110.386 860.076 106.943C851.173 101.852 841.976 97.2039 833.048 92.1377C828.671 89.6292 824.318 86.8994 820.53 83.7022C813.693 77.9474 813.669 67.0526 820.038 61.6421C831.277 52.0999 850.116 57.1907 853.78 70.7662C854.469 73.2993 854.764 75.9308 855.28 78.6852C868.241 78.6852 881.128 78.6852 893.99 78.6852H906.336L906.213 74.0125C905.992 71.1105 905.795 68.2085 905.279 65.3556C900.876 40.9345 886.366 24.2357 860.273 17.0299C841.066 11.7177 821.711 12.1112 802.798 18.2349C753.858 34.0484 752.481 85.2024 776.557 109.304C784.501 117.247 793.822 123.445 804.077 128.56C811.8 132.422 819.62 136.11 827.195 140.242C832.064 142.898 836.983 145.726 841.041 149.292C849.722 156.916 847.214 171.426 836.614 175.337V175.361Z"
          fill="white"/>
    <path d="M174.169 157.678C180.391 187.485 198.639 207.971 230.807 216.53C251.195 221.94 271.927 221.842 292.364 216.53C316.859 210.16 334.148 196.044 343.789 174.229C348.757 163.015 350.823 151.259 350.847 139.233C350.896 121.846 350.896 104.434 350.896 87.0462V16.193H296.299V89.112C296.299 104.188 296.299 119.263 296.25 134.339C296.25 138.643 295.808 142.971 295.021 147.201C292.463 161.269 282.896 173.541 262.975 174.205C246.498 174.746 233.267 166.63 229.258 151.923C227.758 146.365 226.897 140.512 226.848 134.806C226.651 97.1294 226.725 59.428 226.799 21.7511V16.2176H172.128V63.1661C172.128 87.8332 172.128 112.5 172.226 137.192C172.251 144.053 172.743 151.013 174.12 157.727L174.169 157.678Z"
          fill="white"/>
</svg>
