<svg width="24" height="24" viewBox="0 0 24 24" fill="none" xmlns="http://www.w3.org/2000/svg">
<path d="M3.64619 3C3.28931 3 3 3.30996 3 3.69231C3 4.07466 3.28931 4.38462 3.64619 4.38462H4.84007C4.98646 4.38462 5.11455 4.49005 5.15226 4.64158L7.35597 13.4953C5.96539 13.8817 4.93857 15.2355 4.93857 16.8462C4.93857 17.2285 5.22787 17.5385 5.58475 17.5385H19.1547C19.5116 17.5385 19.8009 17.2285 19.8009 16.8462C19.8009 16.4638 19.5116 16.1538 19.1547 16.1538H6.34125C6.60738 15.3472 7.32545 14.7692 8.16951 14.7692H17.835C18.0821 14.7692 18.3076 14.6182 18.4159 14.3802C19.3939 12.2299 20.2475 10.0025 20.9664 7.70885C21.0236 7.52637 21.0073 7.32661 20.9214 7.15753C20.8355 6.98845 20.6878 6.86532 20.5137 6.81769C16.3593 5.681 12.0067 5.07692 7.52332 5.07692C7.21502 5.07692 6.90734 5.07978 6.60029 5.08547L6.401 4.28481C6.21242 3.52716 5.57196 3 4.84007 3H3.64619Z" fill="#FFFDFD"/>
<path d="M4.93857 19.6154C4.93857 18.8507 5.51718 18.2308 6.23094 18.2308C6.9447 18.2308 7.52332 18.8507 7.52332 19.6154C7.52332 20.3801 6.9447 21 6.23094 21C5.51718 21 4.93857 20.3801 4.93857 19.6154Z" fill="#FFFDFD"/>
<path d="M15.9238 19.6154C15.9238 18.8507 16.5024 18.2308 17.2162 18.2308C17.9299 18.2308 18.5085 18.8507 18.5085 19.6154C18.5085 20.3801 17.9299 21 17.2162 21C16.5024 21 15.9238 20.3801 15.9238 19.6154Z" fill="#FFFDFD"/>
</svg>
