<svg width="24" height="24" viewBox="0 0 24 24" fill="none" xmlns="http://www.w3.org/2000/svg">
<path d="M12.0004 4.49998C12.0004 3.17449 10.9259 2.09998 9.60039 2.09998C8.27491 2.09998 7.20039 3.17449 7.20039 4.49998C7.20039 5.82546 8.27491 6.89998 9.60039 6.89998C10.9259 6.89998 12.0004 5.82546 12.0004 4.49998Z" fill="#5D5D5D"/>
<path d="M20.7004 5.39998C21.1974 5.39998 21.6004 4.99703 21.6004 4.49998C21.6004 4.00292 21.1974 3.59998 20.7004 3.59998L14.1004 3.59998C13.6033 3.59998 13.2004 4.00292 13.2004 4.49998C13.2004 4.99703 13.6033 5.39998 14.1004 5.39998L20.7004 5.39998Z" fill="#5D5D5D"/>
<path d="M6.00039 4.49998C6.00039 4.99703 5.59745 5.39998 5.10039 5.39998H3.30039C2.80333 5.39998 2.40039 4.99703 2.40039 4.49998C2.40039 4.00292 2.80333 3.59998 3.30039 3.59998L5.10039 3.59998C5.59745 3.59998 6.00039 4.00292 6.00039 4.49998Z" fill="#5D5D5D"/>
<path d="M5.10039 20.4C5.59745 20.4 6.00039 19.997 6.00039 19.5C6.00039 19.0029 5.59745 18.6 5.10039 18.6H3.30039C2.80333 18.6 2.40039 19.0029 2.40039 19.5C2.40039 19.997 2.80333 20.4 3.30039 20.4H5.10039Z" fill="#5D5D5D"/>
<path d="M20.7004 20.4C21.1974 20.4 21.6004 19.997 21.6004 19.5C21.6004 19.0029 21.1974 18.6 20.7004 18.6H14.1004C13.6033 18.6 13.2004 19.0029 13.2004 19.5C13.2004 19.997 13.6033 20.4 14.1004 20.4H20.7004Z" fill="#5D5D5D"/>
<path d="M10.8004 12C10.8004 12.497 10.3974 12.9 9.90039 12.9H3.30039C2.80333 12.9 2.40039 12.497 2.40039 12C2.40039 11.5029 2.80333 11.1 3.30039 11.1H9.90039C10.3974 11.1 10.8004 11.5029 10.8004 12Z" fill="#5D5D5D"/>
<path d="M20.7004 12.9C21.1974 12.9 21.6004 12.497 21.6004 12C21.6004 11.5029 21.1974 11.1 20.7004 11.1H18.9004C18.4033 11.1 18.0004 11.5029 18.0004 12C18.0004 12.497 18.4033 12.9 18.9004 12.9H20.7004Z" fill="#5D5D5D"/>
<path d="M16.8004 12C16.8004 10.6745 15.7259 9.59998 14.4004 9.59998C13.0749 9.59998 12.0004 10.6745 12.0004 12C12.0004 13.3255 13.0749 14.4 14.4004 14.4C15.7259 14.4 16.8004 13.3255 16.8004 12Z" fill="#5D5D5D"/>
<path d="M12.0004 19.5C12.0004 18.1745 10.9259 17.1 9.60039 17.1C8.27491 17.1 7.20039 18.1745 7.20039 19.5C7.20039 20.8255 8.27491 21.9 9.60039 21.9C10.9259 21.9 12.0004 20.8255 12.0004 19.5Z" fill="#5D5D5D"/>
</svg>
